<svg width="338" height="87" viewBox="0 0 338 87" fill="none" xmlns="http://www.w3.org/2000/svg">
<path d="M35.7955 41.108C34.517 34.4602 29.1989 30.2159 19.9943 30.2159C10.5341 30.2159 4.09091 34.8693 4.11648 42.1307C4.09091 47.858 7.61932 51.642 15.1619 53.2017L21.8608 54.608C25.4659 55.4006 27.1534 56.858 27.1534 59.0824C27.1534 61.767 24.2386 63.7869 19.8409 63.7869C15.5966 63.7869 12.8352 61.946 12.0426 58.4176L3.01705 59.2869C4.16761 66.4972 10.2273 70.767 19.8665 70.767C29.6847 70.767 36.6136 65.679 36.6392 58.2386C36.6136 52.6392 33.0085 49.2131 25.5938 47.6023L18.8949 46.1705C14.9062 45.2756 13.321 43.8949 13.3466 41.6193C13.321 38.9602 16.2614 37.1193 20.1222 37.1193C24.392 37.1193 26.642 39.446 27.358 42.0284L35.7955 41.108ZM44.2713 70H53.527V46.1193C53.527 41.2869 56.7486 38.0142 60.7372 38.0142C64.6491 38.0142 67.3338 40.6477 67.3338 44.6875V70H76.4105V45.5057C76.4105 41.0824 79.044 38.0142 83.5185 38.0142C87.2514 38.0142 90.2173 40.2131 90.2173 45.071V70H99.4986V43.6392C99.4986 34.8693 94.4361 30.2159 87.2259 30.2159C81.5242 30.2159 77.1776 33.0284 75.4389 37.4006H75.0298C73.5213 32.9517 69.7116 30.2159 64.419 30.2159C59.152 30.2159 55.2145 32.9261 53.5781 37.4006H53.1179V30.7273H44.2713V70ZM126.019 70.767C137.525 70.767 144.837 62.6619 144.837 50.517C144.837 38.3466 137.525 30.2159 126.019 30.2159C114.513 30.2159 107.201 38.3466 107.201 50.517C107.201 62.6619 114.513 70.767 126.019 70.767ZM126.07 63.3523C119.704 63.3523 116.585 57.6761 116.585 50.4915C116.585 43.3068 119.704 37.554 126.07 37.554C132.335 37.554 135.454 43.3068 135.454 50.4915C135.454 57.6761 132.335 63.3523 126.07 63.3523ZM161.949 17.6364H152.693V70H161.949V17.6364Z" fill="url(#paint0_linear)"/>
<path d="M186.04 70.6903C192.79 70.6903 195.833 66.6761 197.29 63.8125H197.853V70H206.955V17.6364H197.674V37.2216H197.29C195.884 34.3835 192.995 30.2159 186.066 30.2159C176.989 30.2159 169.856 37.3239 169.856 50.4148C169.856 63.3523 176.785 70.6903 186.04 70.6903ZM188.623 63.0966C182.512 63.0966 179.29 57.7273 179.29 50.3636C179.29 43.0511 182.461 37.8097 188.623 37.8097C194.58 37.8097 197.853 42.7443 197.853 50.3636C197.853 57.983 194.529 63.0966 188.623 63.0966ZM228.119 70.7926C234.281 70.7926 237.963 67.9034 239.651 64.6051H239.957V70H248.855V43.7159C248.855 33.3352 240.392 30.2159 232.901 30.2159C224.642 30.2159 218.301 33.8977 216.256 41.0568L224.898 42.2841C225.818 39.5994 228.426 37.2983 232.952 37.2983C237.247 37.2983 239.599 39.4972 239.599 43.358V43.5114C239.599 46.1705 236.812 46.2983 229.884 47.0398C222.264 47.858 214.977 50.1335 214.977 58.9801C214.977 66.7017 220.628 70.7926 228.119 70.7926ZM230.523 63.9915C226.662 63.9915 223.901 62.2273 223.901 58.8267C223.901 55.2727 226.994 53.7898 231.136 53.2017C233.565 52.8693 238.423 52.2557 239.625 51.2841V55.9119C239.625 60.2841 236.097 63.9915 230.523 63.9915ZM289.202 41.108C287.923 34.4602 282.605 30.2159 273.401 30.2159C263.94 30.2159 257.497 34.8693 257.523 42.1307C257.497 47.858 261.026 51.642 268.568 53.2017L275.267 54.608C278.872 55.4006 280.56 56.858 280.56 59.0824C280.56 61.767 277.645 63.7869 273.247 63.7869C269.003 63.7869 266.241 61.946 265.449 58.4176L256.423 59.2869C257.574 66.4972 263.634 70.767 273.273 70.767C283.091 70.767 290.02 65.679 290.045 58.2386C290.02 52.6392 286.415 49.2131 279 47.6023L272.301 46.1705C268.312 45.2756 266.727 43.8949 266.753 41.6193C266.727 38.9602 269.668 37.1193 273.528 37.1193C277.798 37.1193 280.048 39.446 280.764 42.0284L289.202 41.108ZM306.933 46.9886C306.933 41.3125 310.462 38.0398 315.422 38.0398C320.28 38.0398 323.143 41.1335 323.143 46.4261V70H332.399V44.9943C332.399 35.5085 327.03 30.2159 318.874 30.2159C312.839 30.2159 309.004 32.9517 307.189 37.4006H306.729V17.6364H297.678V70H306.933V46.9886Z" fill="black"/>
<rect x="4" y="78" width="329" height="8" fill="#3193FF"/>
<defs>
<linearGradient id="paint0_linear" x1="169" y1="0" x2="169" y2="87" gradientUnits="userSpaceOnUse">
<stop stop-color="#8FAFD3"/>
<stop offset="1" stop-color="#3193FF"/>
</linearGradient>
</defs>
</svg>
